<svg width="4000" height="4000" viewBox="0 0 4000 4000" fill="none" xmlns="http://www.w3.org/2000/svg">
<circle cx="2000" cy="2000" r="1750" stroke="#9B7A7B" stroke-width="36" stroke-miterlimit="1.10793" stroke-linecap="round" stroke-dasharray="175 198"/>
<path d="M2086.71 652.773C2732.98 693.997 3255.57 1190.12 3337.74 1824.41L2940.39 2102.64C2944.1 2068.6 2946 2034.02 2946 1999C2946 1637.2 2742.89 1322.83 2444.48 1163.71L2086.71 652.773Z" fill="#FF0405"/>
<path d="M2086.71 652.773C2732.98 693.997 3255.57 1190.12 3337.74 1824.41L2940.39 2102.64C2944.1 2068.6 2946 2034.02 2946 1999C2946 1637.2 2742.89 1322.83 2444.48 1163.71L2086.71 652.773Z" fill="#FF0405"/>
<path d="M2086.71 652.773C2732.98 693.997 3255.57 1190.12 3337.74 1824.41L2940.39 2102.64C2944.1 2068.6 2946 2034.02 2946 1999C2946 1637.2 2742.89 1322.83 2444.48 1163.71L2086.71 652.773Z" fill="#FF0405"/>
<path d="M2086.71 652.773C2732.98 693.997 3255.57 1190.12 3337.74 1824.41L2940.39 2102.64C2944.1 2068.6 2946 2034.02 2946 1999C2946 1637.2 2742.89 1322.83 2444.48 1163.71L2086.71 652.773Z" fill="#FF0405"/>
<path d="M2086.71 652.773C2732.98 693.997 3255.57 1190.12 3337.74 1824.41L2940.39 2102.64C2944.1 2068.6 2946 2034.02 2946 1999C2946 1637.2 2742.89 1322.83 2444.48 1163.71L2086.71 652.773Z" fill="#FF0405"/>
<path d="M3346.2 2087.05C3304.85 2732.77 2809.38 3254.94 2175.76 3337.59L1896.99 2939.46C1930.82 2943.12 1965.19 2945 2000 2945C2360.95 2945 2674.68 2742.85 2834.16 2445.59L3346.2 2087.05Z" fill="#4FC100"/>
<path d="M3346.2 2087.05C3304.85 2732.77 2809.38 3254.94 2175.76 3337.59L1896.99 2939.46C1930.82 2943.12 1965.19 2945 2000 2945C2360.95 2945 2674.68 2742.85 2834.16 2445.59L3346.2 2087.05Z" fill="#4FC100"/>
<path d="M3346.2 2087.05C3304.85 2732.77 2809.38 3254.94 2175.76 3337.59L1896.99 2939.46C1930.82 2943.12 1965.19 2945 2000 2945C2360.95 2945 2674.68 2742.85 2834.16 2445.59L3346.2 2087.05Z" fill="#4FC100"/>
<path d="M3346.2 2087.05C3304.85 2732.77 2809.38 3254.94 2175.76 3337.59L1896.99 2939.46C1930.82 2943.12 1965.19 2945 2000 2945C2360.95 2945 2674.68 2742.85 2834.16 2445.59L3346.2 2087.05Z" fill="#4FC100"/>
<path d="M3346.2 2087.05C3304.85 2732.77 2809.38 3254.94 2175.76 3337.59L1896.99 2939.46C1930.82 2943.12 1965.19 2945 2000 2945C2360.95 2945 2674.68 2742.85 2834.16 2445.59L3346.2 2087.05Z" fill="#4FC100"/>
<path d="M1059.39 1897.42C1055.83 1930.79 1054 1964.68 1054 1999C1054 2360.32 1256.57 2674.33 1554.33 2833.66L1913.29 3346.29C1267.06 3305.55 744.281 2809.97 661.446 2176.06L1059.39 1897.42Z" fill="#6877BF"/>
<path d="M1059.39 1897.42C1055.83 1930.79 1054 1964.68 1054 1999C1054 2360.32 1256.57 2674.33 1554.33 2833.66L1913.29 3346.29C1267.06 3305.55 744.281 2809.97 661.446 2176.06L1059.39 1897.42Z" fill="#6877BF"/>
<path d="M1059.39 1897.42C1055.83 1930.79 1054 1964.68 1054 1999C1054 2360.32 1256.57 2674.33 1554.33 2833.66L1913.29 3346.29C1267.06 3305.55 744.281 2809.97 661.446 2176.06L1059.39 1897.42Z" fill="#6877BF"/>
<path d="M1059.39 1897.42C1055.83 1930.79 1054 1964.68 1054 1999C1054 2360.32 1256.57 2674.33 1554.33 2833.66L1913.29 3346.29C1267.06 3305.55 744.281 2809.97 661.446 2176.06L1059.39 1897.42Z" fill="#6877BF"/>
<path d="M1059.39 1897.42C1055.83 1930.79 1054 1964.68 1054 1999C1054 2360.32 1256.57 2674.33 1554.33 2833.66L1913.29 3346.29C1267.06 3305.55 744.281 2809.97 661.446 2176.06L1059.39 1897.42Z" fill="#6877BF"/>
<path d="M2102.21 1058.46C2068.63 1054.85 2034.53 1053 2000 1053C1637.83 1053 1323.19 1256.53 1164.22 1555.45L652.69 1913.62C693.308 1266.84 1189.53 743.652 1824.11 661.294L2102.21 1058.46Z" fill="#EC1C4F"/>
<path d="M2102.21 1058.46C2068.63 1054.85 2034.53 1053 2000 1053C1637.83 1053 1323.19 1256.53 1164.22 1555.45L652.69 1913.62C693.308 1266.84 1189.53 743.652 1824.11 661.294L2102.21 1058.46Z" fill="#EC1C4F"/>
<path d="M2102.21 1058.46C2068.63 1054.85 2034.53 1053 2000 1053C1637.83 1053 1323.19 1256.53 1164.22 1555.45L652.69 1913.62C693.308 1266.84 1189.53 743.652 1824.11 661.294L2102.21 1058.46Z" fill="#EC1C4F"/>
<path d="M2102.21 1058.46C2068.63 1054.85 2034.53 1053 2000 1053C1637.83 1053 1323.19 1256.53 1164.22 1555.45L652.69 1913.62C693.308 1266.84 1189.53 743.652 1824.11 661.294L2102.21 1058.46Z" fill="#EC1C4F"/>
<path d="M2102.21 1058.46C2068.63 1054.85 2034.53 1053 2000 1053C1637.83 1053 1323.19 1256.53 1164.22 1555.45L652.69 1913.62C693.308 1266.84 1189.53 743.652 1824.11 661.294L2102.21 1058.46Z" fill="#EC1C4F"/>
<circle cx="2000" cy="250" r="115" fill="#FF0405"/>
<circle cx="3750" cy="2000" r="115" fill="#4FC100"/>
<circle cx="250" cy="2000" r="115" fill="#EC1C4F"/>
<circle cx="2000" cy="3750" r="115" fill="#6877BF"/>
<path d="M2412.75 1756.53H2255.87V1977.4L2667.62 2420.15H2344.38C2344.07 2383.44 2337.61 2346.17 2324.34 2309.73C2261.57 2137.27 2070.27 2048.57 1897.06 2111.61C1762.94 2160.43 1678.99 2285.92 1677.08 2420.15H1333L1742.18 1980.16V1756.53H1585.29L1999.02 1221L2412.75 1756.53Z" fill="#9B7A7B"/>
<path d="M1788.7 2622.42C1768.94 2602.89 1750.2 2582.17 1732.58 2560.33C1724.59 2550.43 1716.82 2540.29 1709.3 2529.94C1709.53 2530.42 1709.69 2530.87 1709.82 2531.35C1692.64 2495.07 1678.58 2458.06 1668.07 2418.78C1667.59 2417.02 1666.52 2415.44 1665 2414.4C1663.47 2413.36 1661.62 2412.95 1659.83 2413.26C1659.52 2413.31 1659.21 2413.39 1658.91 2413.49C1652.27 2313.59 1689.86 2211.75 1770.04 2139.56C1908.82 2014.6 2122.62 2025.8 2247.58 2164.58C2288.12 2209.61 2314.32 2262.53 2326.49 2317.75C2326.45 2317.59 2326.41 2317.44 2326.37 2317.28C2325.78 2314.93 2324.95 2312.64 2323.92 2310.45C2313.02 2287.8 2300.88 2265.73 2287.46 2244.44C2281.03 2234.23 2274.28 2224.21 2267.24 2214.4C2265.84 2212.45 2264.25 2210.64 2262.51 2209C2236.13 2184.16 2207.41 2161.68 2176.83 2142.11C2174.81 2140.82 2172.66 2139.72 2170.42 2138.84C2137.6 2125.85 2103.51 2115.83 2068.78 2109.12C2066.41 2108.67 2064 2108.44 2061.59 2108.45C2027.22 2108.51 1992.77 2111.71 1958.92 2118.15C1956.54 2118.6 1954.21 2119.28 1951.97 2120.18C1920.92 2132.6 1890.92 2147.9 1862.63 2165.89C1860.57 2167.2 1858.65 2168.7 1856.89 2170.38C1833.31 2192.77 1811.7 2217.37 1792.61 2243.81C1791.18 2245.8 1789.94 2247.92 1788.92 2250.15C1775.68 2278.83 1765.02 2308.81 1757.28 2339.55C1756.69 2341.94 1756.32 2344.39 1756.2 2346.85C1754.56 2377.48 1755.72 2408.36 1759.79 2438.86C1760.13 2441.33 1760.7 2443.76 1761.5 2446.11C1771.04 2474.29 1783.17 2501.71 1797.8 2527.74C1799.03 2529.92 1800.48 2531.98 1802.11 2533.89C1820.81 2555.84 1841.58 2576.16 1864.1 2594.35C1866.08 2595.93 1868.21 2597.33 1870.45 2598.5C1895.15 2611.52 1921.12 2622.35 1947.91 2630.62C1950.36 2631.37 1952.87 2631.88 1955.41 2632.14C1982.27 2634.97 2009.5 2635.38 2036.53 2633.2C2039.11 2632.99 2041.66 2632.52 2044.14 2631.81C2069.25 2624.72 2093.83 2615.33 2117.32 2603.67C2119.65 2602.5 2121.87 2601.1 2123.93 2599.51C2143.89 2584.15 2162.55 2566.92 2179.42 2548.05C2181.17 2546.08 2182.73 2543.94 2184.07 2541.66C2196.42 2520.77 2206.95 2498.66 2215.28 2475.73C2216.19 2473.21 2216.84 2470.62 2217.24 2467.98C2220.8 2444.89 2222.29 2421.37 2221.52 2397.88C2221.42 2395.18 2221.06 2392.49 2220.43 2389.87C2215.34 2368.01 2208.25 2346.48 2199.16 2325.8C2198.05 2323.3 2196.69 2320.92 2195.12 2318.69C2182.76 2301.05 2168.75 2284.42 2153.24 2269.25C2151.25 2267.32 2149.08 2265.6 2146.76 2264.1C2129.48 2252.85 2111.07 2243.07 2091.85 2235.14C2089.26 2234.08 2086.57 2233.28 2083.82 2232.76C2064.48 2228.96 2044.65 2226.87 2024.77 2226.7C2021.93 2226.69 2019.1 2226.96 2016.33 2227.51C1997.86 2231.06 1979.57 2236.3 1961.91 2243.27C1959.25 2244.33 1956.69 2245.66 1954.3 2247.23C1939.28 2256.96 1925.01 2268.11 1911.91 2280.58C1909.81 2282.59 1907.92 2284.81 1906.27 2287.2C1896.54 2301.12 1887.96 2316.04 1880.88 2331.7C1879.68 2334.38 1878.76 2337.19 1878.12 2340.06C1874.56 2355.74 1872.36 2371.89 1871.75 2388.16C1871.66 2391.15 1871.86 2394.13 1872.37 2397.07C1874.86 2412.03 1878.71 2426.93 1883.99 2441.39C1885.05 2444.22 1886.39 2446.95 1888 2449.51C1895.51 2461.63 1904.19 2473.23 1913.97 2483.92C1916.06 2486.18 1918.37 2488.22 1920.87 2490C1931.7 2497.8 1943.37 2504.75 1955.7 2510.52C1958.53 2511.83 1961.5 2512.84 1964.54 2513.53C1976.66 2516.37 1989.21 2518.18 2001.91 2518.73C2005.09 2518.85 2008.28 2518.63 2011.41 2518.08C2022.78 2516.16 2034.19 2513.2 2045.29 2509.09C2048.33 2507.95 2051.24 2506.48 2053.96 2504.72C2054.17 2504.58 2054.39 2504.44 2054.6 2504.31C2063.33 2498.67 2071.75 2492.17 2079.53 2484.83C2081.94 2482.53 2084.09 2479.97 2085.94 2477.21C2091.4 2469.15 2096.28 2460.42 2100.27 2451.14C2101.61 2447.99 2102.59 2444.68 2103.19 2441.31C2104.79 2432.61 2105.66 2423.53 2105.58 2414.29C2105.54 2410.73 2105.07 2407.17 2104.2 2403.73C2102.29 2395.99 2099.64 2388.17 2096.11 2380.55C2094.52 2377.16 2092.51 2373.97 2090.15 2371.07C2085.69 2365.54 2080.56 2360.19 2074.74 2355.33C2071.66 2352.77 2068.23 2350.62 2064.59 2348.95C2058.9 2346.31 2052.71 2344.06 2046.11 2342.49C2041.82 2341.47 2037.37 2341.09 2032.94 2341.36C2027.49 2341.66 2021.75 2342.48 2015.93 2344.03C2011.06 2345.34 2006.37 2347.48 2002.13 2350.37C1998.24 2353.02 1994.34 2356.2 1990.7 2359.97C1986.51 2364.33 1983.13 2369.62 1980.97 2375.51C1979.56 2379.28 1978.43 2383.42 1977.76 2387.79C1976.63 2395.12 1977.36 2402.88 1980.1 2410.14C1981.97 2415.15 1984.7 2420.16 1988.03 2424.55C1993.97 2432.52 2002.88 2437.73 2012.74 2439.07C2015.78 2439.48 2018.82 2439.51 2021.82 2439.19C2020.22 2440.46 2018.56 2441.69 2016.85 2442.89C2011.89 2444.67 2006.74 2446.11 2001.42 2447.22C1995.16 2446.9 1988.87 2446.11 1982.57 2444.87C1976.02 2441.76 1969.65 2438.13 1963.5 2433.99C1957.95 2427.9 1952.86 2421.33 1948.22 2414.33C1945.05 2405.67 1942.57 2396.7 1940.77 2387.49C1941.14 2377.29 1942.36 2367.07 1944.39 2356.9C1948.98 2346.69 1954.45 2336.82 1960.72 2327.35C1969.52 2318.93 1979.07 2311.23 1989.26 2304.28C2001.49 2299.41 2014.17 2295.58 2027.18 2292.76C2041.34 2292.83 2055.53 2294.12 2069.61 2296.57C2083.63 2302.29 2097.18 2309.25 2110.16 2317.32C2121.74 2328.55 2132.35 2340.82 2141.94 2353.96C2148.9 2369.6 2154.49 2385.88 2158.71 2402.6C2159.38 2420.69 2158.45 2438.87 2155.98 2456.93C2149.54 2474.9 2141.49 2492.32 2131.98 2509.01C2118.66 2524.04 2103.98 2537.88 2088.17 2550.44C2069.34 2559.88 2049.65 2567.64 2029.36 2573.68C2007.39 2575.53 1985.24 2575.41 1963.18 2573.38C1941.16 2566.66 1919.73 2557.94 1899.14 2547.41C1880.42 2532.38 1863.06 2515.65 1847.21 2497.49C1834.92 2475.74 1824.61 2452.87 1816.32 2429.21C1812.84 2403.49 1811.7 2377.45 1812.83 2351.43C1819.37 2325.31 1828.29 2299.79 1839.39 2275.17C1855.7 2252.55 1874.08 2231.43 1894.22 2212.02C1918.56 2196.53 1944.32 2183.28 1971.11 2172.36C2000.39 2166.81 2030.18 2163.95 2060.06 2163.73C2090.25 2169.6 2119.9 2178.25 2148.61 2189.46C2175.28 2206.61 2200.37 2226.21 2223.57 2247.9C2229.61 2256.35 2235.39 2264.97 2240.93 2273.76C2252.72 2292.48 2263.28 2312 2272.48 2332.15C2272.85 2333.76 2273.22 2335.37 2273.58 2336.98C2280.44 2367.94 2284.42 2399.47 2285.66 2431.11C2280.23 2464.76 2271.66 2497.8 2260.3 2529.84C2242.41 2559.67 2221.91 2587.79 2199.21 2614.04C2171.09 2635.79 2141.18 2655.09 2109.89 2671.95C2106.37 2673.02 2102.84 2674.06 2099.3 2675.07C2067.8 2684.1 2035.65 2690.81 2003.06 2695.23C1965.59 2692.84 1928.26 2687.39 1891.39 2678.97C1855.87 2663.03 1821.55 2644.12 1788.7 2622.42Z" fill="#9B7A7B"/>
</svg>
