<svg xmlns="http://www.w3.org/2000/svg" width="48" height="48" viewBox="0 0 24 24" fill="none" stroke="currentColor" stroke-width="2" stroke-linecap="round" stroke-linejoin="round">
  <!-- Pencil Icon (main, centered) -->
  <path d="M21.174 6.812a1 1 0 0 0-3.986-3.987L3.842 16.174a2 2 0 0 0-.5.83l-1.321 4.352a.5.5 0 0 0 .623.622l4.353-1.32a2 2 0 0 0 .83-.497z"/>
  <path d="m15 5 4 4"/>

  <!-- Smaller Server Icon (bottom-right) -->
  <g transform="translate(14,15) scale(0.5)">
    <rect x="4" y="3" width="16" height="6" rx="1"/>
    <rect x="4" y="9" width="16" height="6" rx="1"/>
    <rect x="4" y="15" width="16" height="6" rx="1"/>
    <circle cx="18" cy="6" r="1"/>
    <circle cx="18" cy="12" r="1"/>
    <circle cx="18" cy="18" r="1"/>
  </g>
</svg>
